<?xml version="1.0" encoding="UTF-8"?>
<svg width="42px" height="42px" viewBox="0 0 42 42" version="1.1" xmlns="http://www.w3.org/2000/svg" xmlns:xlink="http://www.w3.org/1999/xlink">
    <title>Group 8</title>
    <defs>
        <polygon id="path-1" points="0 0 42 0 42 42 0 42"></polygon>
    </defs>
    <g id="High-Fidelity" stroke="none" stroke-width="1" fill="none" fill-rule="evenodd">
        <g id="Halaman-Utama" transform="translate(-57.000000, -771.000000)">
            <g id="Group-8" transform="translate(57.000000, 771.000000)">
                <g id="Group-3">
                    <mask id="mask-2" fill="white">
                        <use xlink:href="#path-1"></use>
                    </mask>
                    <g id="Clip-2"></g>
                    <path d="M42.0000467,20.9999067 C42.0000467,9.40178845 32.5981029,-0.000186667496 21.0000233,-0.000186667496 C9.40194378,-0.000186667496 0,9.40178845 0,20.9999067 C0,32.5984915 9.40194378,42 21.0000233,42 C32.5981029,42 42.0000467,32.5984915 42.0000467,20.9999067" id="Fill-1" fill="#DBAB5A" mask="url(#mask-2)"></path>
                </g>
                <path d="M35,18.137963 C30.7432227,20.3017043 26.476169,22.4438945 22.2390104,24.646428 C21.370185,25.0975666 20.6779274,25.1325275 19.7857465,24.6612744 C15.9685201,22.6431234 12.0994445,20.7279394 8.27381012,18.7255926 C7.77587041,18.4645835 7.4213336,17.9157461 7,17.5000472 C7.42086649,17.0848273 7.7754033,16.5359898 8.27334301,16.2749807 C12.0989774,14.272634 15.9685201,12.3579288 19.7852793,10.3388201 C20.6783945,9.86613022 21.3697179,9.90348565 22.2380762,10.3546243 C26.4757019,12.5566789 30.7432227,14.698869 35,16.8626104 L35,18.137963 Z" id="Fill-4" fill="#FFFFFF"></path>
                <path d="M12.0516475,23 C13.9288424,23.9746206 15.6425579,24.6689582 17.1505148,25.6920893 C19.4955992,27.2831366 21.6400924,27.2052258 23.9616883,25.6548489 C25.4386405,24.6679782 27.1002117,23.9814807 28.6997734,23.1494516 C29.488045,27.9823743 28.9365367,29.8556647 24.4540057,31.3379308 C21.5301665,32.3047113 18.5678064,32.2179804 15.7102046,31.0429476 C12.2827736,29.6332022 11.8369633,28.0308848 12.0417823,25.574488 C12.1047313,24.8218398 12.0516475,24.0579215 12.0516475,23" id="Fill-6" fill="#FFFFFF"></path>
            </g>
        </g>
    </g>
</svg>