<?xml version="1.0" encoding="UTF-8"?>
<svg width="42px" height="42px" viewBox="0 0 42 42" version="1.1" xmlns="http://www.w3.org/2000/svg" xmlns:xlink="http://www.w3.org/1999/xlink">
    <title>Group 10</title>
    <defs>
        <polygon id="path-1" points="0 0 42 0 42 42 0 42"></polygon>
    </defs>
    <g id="High-Fidelity" stroke="none" stroke-width="1" fill="none" fill-rule="evenodd">
        <g id="Halaman-Utama" transform="translate(-175.000000, -771.000000)">
            <g id="Group-10" transform="translate(175.000000, 771.000000)">
                <g id="Group-3">
                    <mask id="mask-2" fill="white">
                        <use xlink:href="#path-1"></use>
                    </mask>
                    <g id="Clip-2"></g>
                    <path d="M42,20.9999067 C42,9.40178845 32.5980667,-0.000186667496 21,-0.000186667496 C9.40193333,-0.000186667496 0,9.40178845 0,20.9999067 C0,32.5984915 9.40193333,42 21,42 C32.5980667,42 42,32.5984915 42,20.9999067" id="Fill-1" fill="#DBAB5A" mask="url(#mask-2)"></path>
                </g>
                <path d="M27.2512333,28.0914982 L14.6339667,28.0914982 C13.1000333,28.0914982 11.8568333,26.8482927 11.8568333,25.3143525 L11.8568333,12.6974964 C11.8568333,11.1635563 13.1000333,9.91988409 14.6339667,9.91988409 L27.2512333,9.91988409 C28.7847,9.91988409 30.0283667,11.1635563 30.0283667,12.6974964 L30.0283667,25.3143525 C30.0283667,26.8482927 28.7847,28.0914982 27.2512333,28.0914982" id="Fill-4" fill="#FFFFFF"></path>
                <path d="M18.4351533,31.8503749 C17.3958867,31.8503749 16.46442,31.8438415 15.7480867,31.8275081 C13.9938867,31.7887746 13.4114867,31.4537065 12.83702,30.7653701 L12.7940867,30.7140365 C11.46642,29.1408962 11.7501533,26.0030156 11.7865533,25.650214 C11.8397533,25.1378117 12.29522,24.75561 12.8113533,24.8186103 C13.3237533,24.8718105 13.6961533,25.3296126 13.6429533,25.8424815 C13.53842,26.8714861 13.60282,28.7778279 14.2211533,29.5104978 L14.2696867,29.5688314 C14.4600867,29.7970324 14.5753533,29.9346997 15.7900867,29.9617665 C19.4613533,30.0425002 28.9416867,29.8712328 29.0368867,29.8693661 C29.53482,29.853966 29.9776867,30.2697679 29.9876279,30.7854368 C29.9963533,31.3006391 29.58662,31.726241 29.07142,31.736041 C28.9939533,31.7374411 22.7807533,31.8503749 18.4351533,31.8503749" id="Fill-6" fill="#FFFFFF"></path>
                <path d="M26.6524067,18.2176276 C26.6524067,18.1616274 26.5576733,18.079027 26.3682067,17.9702932 C26.1782733,17.8610927 25.91834,17.8064925 25.5884067,17.8064925 C25.30654,17.8064925 24.9976067,17.8708928 24.6616067,17.9982933 C24.3260733,18.1261606 24.0092067,18.3067614 23.7128733,18.5414957 C23.4160733,18.7762301 23.1832067,19.0534313 23.0142733,19.3726328 C23.4198067,19.3646994 23.8356067,19.3166325 24.26214,19.2288988 C24.68774,19.1406984 25.0820733,19.0324313 25.4446733,18.9050307 C25.8068067,18.7771635 26.0984733,18.6506962 26.32014,18.5246957 C26.5418067,18.3991618 26.6524067,18.2964947 26.6524067,18.2176276 M23.99474,14.9682132 C23.99474,14.9948133 23.9602067,15.0690136 23.8930067,15.1912809 C23.82534,15.3126147 23.7450733,15.4465487 23.6508067,15.5907493 C23.5570067,15.7354166 23.46694,15.8609505 23.3806067,15.9682843 C23.2942733,16.0751514 23.2340733,16.1283517 23.2004733,16.1283517 C23.1850733,16.1283517 23.1234733,16.0928849 23.0142733,16.0214845 C22.90554,15.9505509 22.7846733,15.8656172 22.6512067,15.7680834 C22.5182067,15.6705496 22.4006067,15.5795492 22.29934,15.4950822 C22.1980733,15.4101485 22.1472067,15.3550816 22.1472067,15.3289481 C22.1472067,15.2948813 22.18314,15.2169476 22.2540733,15.0951471 C22.32594,14.9733465 22.4090067,14.8398793 22.5046733,14.695212 C22.60034,14.5510113 22.68994,14.4250108 22.77254,14.3181436 C22.8546733,14.2108098 22.9092733,14.1576096 22.9354067,14.1576096 C22.96574,14.1576096 23.0362067,14.1940098 23.1468067,14.2672767 C23.2578733,14.3405437 23.3782733,14.4268775 23.51034,14.5262779 C23.6414733,14.626145 23.7548733,14.7180787 23.85054,14.8025458 C23.9466733,14.8865462 23.99474,14.9420797 23.99474,14.9682132 M27.4462067,17.5138912 C27.4462067,17.9791599 27.35474,18.3856284 27.1704067,18.7328299 C26.98654,19.0804981 26.74154,19.3758994 26.4354067,19.6199672 C26.12974,19.864035 25.7904733,20.0661025 25.4190067,20.2257032 C25.04754,20.3853039 24.6700067,20.5099045 24.28734,20.5999716 C23.9042067,20.6900386 23.5448733,20.7539722 23.2088733,20.7917724 C22.8724067,20.8291059 22.5900733,20.850106 22.3614067,20.8533727 C22.3348067,20.9098396 22.28954,21.0195068 22.2260733,21.1828408 C22.16214,21.3461749 22.1042733,21.5188423 22.05154,21.7008431 C21.9988067,21.8828439 21.9726733,22.0303112 21.9726733,22.1427784 C21.9540067,22.1427784 21.91154,22.115245 21.84574,22.0583114 C21.7804067,22.0023111 21.7174067,21.9309108 21.6572067,21.8445771 C21.5970067,21.7582434 21.5676067,21.6737763 21.5676067,21.591176 C21.5676067,21.5421757 21.5886067,21.4362419 21.6320067,21.2729079 C21.67494,21.1095738 21.71554,20.9714399 21.7528733,20.8589727 C21.6702733,20.8552394 21.58534,20.8468393 21.4966733,20.8333059 C21.4084733,20.8207059 21.3380067,20.8067058 21.28574,20.7917724 C21.2778067,21.0876404 21.2638067,21.3349748 21.2432733,21.5323757 C21.22274,21.7288432 21.1956733,21.9061774 21.1616067,22.0639114 C21.0262733,22.713981 20.7808067,23.2445833 20.4238067,23.6580518 C20.0672733,24.0710536 19.6300067,24.3739217 19.1120067,24.5671225 C18.59354,24.76079 18.02514,24.8578571 17.4058733,24.8578571 C16.8202067,24.8578571 16.33394,24.75519 15.9470733,24.5503224 C15.5602067,24.3459215 15.2708733,24.080387 15.07954,23.7537189 C14.8882067,23.4270508 14.79254,23.0835826 14.79254,22.7228477 C14.79254,22.3513793 14.8490067,21.9957778 14.9614733,21.6560429 C15.07394,21.3163081 15.20554,21.0148401 15.3558067,20.7521056 C15.5056067,20.4893711 15.64094,20.2817035 15.7608733,20.1300361 C15.8812733,19.9774355 15.9484733,19.9013685 15.9638733,19.9013685 C16.0054067,19.9013685 16.0520733,19.9289019 16.10434,19.9830355 C16.1570733,20.0376357 16.1832067,20.0838359 16.1832067,20.1211694 C16.1832067,20.1547696 16.1248733,20.2518367 16.0086733,20.4114374 C15.8924733,20.5710381 15.7748733,20.7819724 15.6568067,21.0451735 C15.53874,21.3074414 15.47994,21.6117094 15.47994,21.9575109 C15.47994,22.3289792 15.59334,22.6178472 15.82014,22.8245814 C16.04694,23.030849 16.33814,23.1755163 16.6928067,23.2581167 C17.04794,23.3407171 17.4184733,23.3817839 17.80534,23.3817839 C18.10214,23.3817839 18.4124733,23.3547171 18.7372733,23.3005836 C19.0620733,23.2455166 19.3584067,23.1685163 19.6272067,23.0691159 C19.89554,22.9701821 20.0952733,22.8544482 20.2268733,22.7228477 C20.3430733,22.6024471 20.4424733,22.4218463 20.52554,22.1796452 C20.60814,21.9374442 20.6492067,21.6737763 20.6492067,21.3886417 C20.6492067,21.0843737 20.59554,20.8291059 20.4886733,20.6223717 C20.38134,20.4161041 20.2740067,20.2565034 20.1652733,20.1440362 C20.0560733,20.0311024 20.0014733,19.9634354 20.0014733,19.9410353 C20.0014733,19.9111685 20.0322733,19.8248348 20.09434,19.6820341 C20.1564067,19.5392335 20.22874,19.3805661 20.31134,19.206032 C20.39394,19.0314979 20.47094,18.8793639 20.54234,18.7500967 C20.61374,18.6203628 20.65854,18.5559625 20.6772067,18.5559625 C20.7374067,18.6422962 20.8050733,18.7668967 20.8802067,18.9302308 C20.95534,19.0935649 21.00574,19.2298321 21.03234,19.3385659 C21.1858733,19.349766 21.3804733,19.360966 21.6152067,19.3726328 C21.8494733,19.3833661 22.0814067,19.3894328 22.31054,19.3894328 C22.4906733,19.051098 22.7198067,18.6964298 22.9974733,18.3244948 C23.2756067,17.9534931 23.5882733,17.6067583 23.9354733,17.2856902 C24.2826733,16.9646221 24.6532067,16.7028209 25.04754,16.5002867 C25.4414067,16.2977524 25.84694,16.1960186 26.2636733,16.1960186 C26.55674,16.1960186 26.7896067,16.2739523 26.9622733,16.4298197 C27.13494,16.585687 27.2586067,16.7672212 27.33374,16.9734888 C27.4088733,17.1797564 27.4462067,17.3598905 27.4462067,17.5138912" id="Fill-8" fill="#DBAB5A"></path>
            </g>
        </g>
    </g>
</svg>