<?xml version="1.0" encoding="UTF-8"?>
<svg width="20px" height="23px" viewBox="0 0 20 23" version="1.1" xmlns="http://www.w3.org/2000/svg" xmlns:xlink="http://www.w3.org/1999/xlink">
    <title>Untitled 10 Grass Copy</title>
    <g id="High-Fidelity" stroke="none" stroke-width="1" fill="none" fill-rule="evenodd">
        <g id="Belajar:-Menghafal" transform="translate(-199.000000, -823.000000)">
            <g id="Untitled-10-Grass-Copy" transform="translate(200.000000, 824.142857)">
                <path d="M17.7315105,9.91908026 C17.7315105,9.91908026 17.1208454,9.44398542 16.053683,10.5261459 C15.6852817,10.8997247 14.7302415,12.1564927 14.7302415,12.1564927 C14.7302415,12.1564927 15.44502,9.06634593 15.6352272,8.02479186 C15.9796023,6.13659441 16.8245226,4.29103368 15.8774911,3.92354579 C15.1146602,3.6271191 14.1856483,5.65743893 13.7111315,6.40865727 C13.2546342,7.12942081 12.1494304,9.80741267 12.1494304,9.80741267 C12.1494304,9.80741267 12.8041435,5.45440695 12.7380716,3.99663731 C12.5738927,0.441547277 12.7260585,0.798883568 12.1053824,-0.0132443659 C11.568798,-0.715735029 10.7919518,1.61710246 10.185291,2.96117419 C9.84291812,3.71645317 9.33836856,5.06661586 9,5.99447202 C8.66163144,5.06661586 8.15708188,3.71645317 7.81470896,2.96117419 C7.20604599,1.61710246 6.43120202,-0.717765348 5.89461756,-0.0132443659 C5.27394151,0.798883568 5.42610725,0.441547277 5.26192842,3.99663731 C5.19385428,5.45440695 5.85056958,9.80741267 5.85056958,9.80741267 C5.85056958,9.80741267 4.74536578,7.12942081 4.28886855,6.40865727 C3.8143517,5.65946925 2.8853398,3.6271191 2.12250891,3.92354579 C1.17747957,4.29103368 2.02239987,6.13659441 2.36477279,8.02479186 C2.55497997,9.06431561 3.26975852,12.1564927 3.26975852,12.1564927 C3.26975852,12.1564927 2.31471827,10.8997247 1.946317,10.5261459 C0.879154628,9.44398542 0.26848948,9.91908026 0.26848948,9.91908026 C0.26848948,9.91908026 -1.1630698,10.7433901 2.58501268,17.3480205 C4.19276387,20.1803167 7.09993041,20.7427153 8.55751804,20.8381403 L8.55751804,20.8462616 C8.55751804,20.8462616 8.71969469,20.8604739 9,20.8564132 C9.28030531,20.8604739 9.44248196,20.8462616 9.44248196,20.8462616 L9.44248196,20.8381403 C10.9000696,20.7427153 13.8072361,20.1803167 15.4149873,17.3480205 C19.1630698,10.7433901 17.7315105,9.91908026 17.7315105,9.91908026 Z" id="Path" fill="#ACB545" fill-rule="nonzero"></path>
                <path d="M9.29899762,7.4969621 C9.10704532,6.48991642 8.27393276,4.18954797 7.72380143,2.96119589 C7.12221896,1.61711476 6.35638865,-0.717769367 5.82604621,-0.0132434601 C5.21259041,0.79889015 5.36298602,0.441551361 5.20071707,3.99666624 C5.13343482,5.45444607 5.78251064,9.80748222 5.78251064,9.80748222 C5.78251064,9.80748222 4.69016353,7.12947164 4.23897668,6.40870306 C3.76997982,5.6595098 2.851775,3.62714545 2.09781803,3.92357421 C1.1637821,4.29106467 1.99887355,6.1366383 2.33726368,8.02484894 C2.5252582,9.06437996 3.23172183,12.1565787 3.23172183,12.1565787 C3.23172183,12.1565787 2.28779144,10.8998019 1.92367574,10.5262205 C0.868927532,9.44405243 0.265366176,9.91915059 0.265366176,9.91915059 C0.265366176,9.91915059 -1.14953995,10.7434662 2.55494155,17.3481428 C4.7336991,21.2342021 9.33263875,20.8464083 9.33263875,20.8464083 C9.33263875,20.8464083 10.8563838,15.6710869 9.29899762,7.4969621 Z" id="Path" fill="#A5AD44" fill-rule="nonzero"></path>
                <path d="M0,10.8571429 C0,10.8571429 4.15351609,19.8226601 9,20.8571429" id="Path" stroke="#00984A" stroke-linecap="round" stroke-linejoin="round"></path>
                <path d="M9,20.8571429 C9,20.8571429 4.57706201,14.1663808 2,4.85714286" id="Path" stroke="#00984A" stroke-linecap="round" stroke-linejoin="round"></path>
                <path d="M6,-0.142857143 C6,-0.142857143 9.14852246,15.5798584 8.99452995,16.8571429" id="Path" stroke="#00984A" stroke-linecap="round" stroke-linejoin="round"></path>
                <path d="M12,0.857142857 C12,0.857142857 10.3996082,10.1451565 10,10.8571429" id="Path" stroke="#00984A" stroke-linecap="round" stroke-linejoin="round"></path>
                <path d="M10,18.8571429 C10,18.8571429 13.3337829,14.2782267 16,4.85714286" id="Path" stroke="#00984A" stroke-linecap="round" stroke-linejoin="round"></path>
                <path d="M11,19.8571429 C11,19.8571429 18,11.9178255 18,9.85714286" id="Path" stroke="#00984A" stroke-linecap="round" stroke-linejoin="round"></path>
            </g>
        </g>
    </g>
</svg>