<?xml version="1.0" encoding="UTF-8"?>
<svg width="65px" height="92px" viewBox="0 0 65 92" version="1.1" xmlns="http://www.w3.org/2000/svg" xmlns:xlink="http://www.w3.org/1999/xlink">
    <title>Untitled 06 Cactus 1</title>
    <g id="High-Fidelity" stroke="none" stroke-width="1" fill="none" fill-rule="evenodd">
        <g id="Belajar:-Menghafal" transform="translate(-144.000000, -752.000000)">
            <g id="Untitled-06-Cactus-1" transform="translate(144.000000, 753.000000)">
                <path d="M25.2644381,89.2665702 C25.2644381,89.2665702 26.5106143,91.3515127 32.9326269,90.9482209 C39.5381255,90.5297106 39.7521925,89.6546435 39.7521925,89.6546435 L41.2430169,77.0308492 C41.2430169,77.0308492 49.6833762,70.5401341 52.4050863,67.8464492 C55.9371932,64.3461808 62.1069123,54.7660983 63.727706,50.071173 C66.0365724,43.3978352 65.5931477,24.1159217 59.1176184,22.2136019 C53.6818435,20.6156532 51.5258822,24.2376701 50.493773,25.9954136 C48.1313898,30.0055038 50.9219072,36.1766292 50.9219072,44.5772734 C50.9219072,50.6114319 42.0304779,67.0474749 42.0304779,67.0474749 C42.0304779,67.0474749 42.1757377,43.801127 42.9937798,36.1081457 C43.5518833,30.8729616 45.8913307,20.3417192 45.0044814,15.1521908 C44.4005064,11.5986574 42.9479083,1.26525621 33.4372136,0.146692165 C23.207865,-1.05557395 21.8852363,5.41992265 20.4402834,9.07237667 C17.0840174,17.5491137 18.5366154,34.8221775 19.4693363,43.3445702 C20.2415069,50.3298885 23.0396695,71.2249692 23.0396695,71.2249692 C23.0396695,71.2249692 16.7323357,56.8206037 15.7537433,51.6310753 C14.9509918,47.3698789 15.2568019,38.5507243 14.3928883,34.2971372 C13.9341731,32.029572 11.694114,27.068322 7.31338403,28.2858067 C3.77363189,29.2674037 1.12837435,32.6383144 0.103910442,41.0237401 C-1.00465124,50.1168287 7.1222527,62.5580002 7.1222527,62.5580002 C7.1222527,62.5580002 12.5198013,70.0607495 14.4616956,72.4576724 C17.2369224,75.8894574 24.2782005,80.4702435 24.2782005,80.4702435 L25.2644381,89.2665702 Z" id="Path" fill="#ACB545" fill-rule="nonzero"></path>
                <path d="M31.3300443,90 C31.3300443,90 21.1550928,11.8837895 32,0" id="Path" stroke="#5AA366" stroke-linecap="round" stroke-linejoin="round"></path>
                <path d="M43,71 C43,71 55.225814,55.5431638 57.6324703,45.8254783 C60.6611547,33.6078706 57.7139264,22 57.7139264,22" id="Path" stroke="#5AA366" stroke-linecap="round" stroke-linejoin="round"></path>
                <path d="M36.4386944,90 C36.4386944,90 40.2279964,22.2685225 36,1" id="Path" stroke="#5AA366" stroke-linecap="round" stroke-linejoin="round"></path>
                <path d="M24,76 C24,76 7,61.1287879 7,42.0757576 C7,32.6515152 9.8144696,28 9.8144696,28" id="Path" stroke="#5AA366" stroke-linecap="round" stroke-linejoin="round"></path>
            </g>
        </g>
    </g>
</svg>