<?xml version="1.0" encoding="UTF-8"?>
<svg width="42px" height="42px" viewBox="0 0 42 42" version="1.1" xmlns="http://www.w3.org/2000/svg" xmlns:xlink="http://www.w3.org/1999/xlink">
    <title>Group 10</title>
    <defs>
        <polygon id="path-1" points="0 0 42 0 42 42 0 42"></polygon>
    </defs>
    <g id="High-Fidelity" stroke="none" stroke-width="1" fill="none" fill-rule="evenodd">
        <g id="Halaman-Utama" transform="translate(-291.000000, -771.000000)">
            <g id="Group-10" transform="translate(291.000000, 771.000000)">
                <g id="Group-3">
                    <mask id="mask-2" fill="white">
                        <use xlink:href="#path-1"></use>
                    </mask>
                    <g id="Clip-2"></g>
                    <path d="M42,20.9999067 C42,9.40178845 32.5980667,-0.000186667496 21,-0.000186667496 C9.40193333,-0.000186667496 0,9.40178845 0,20.9999067 C0,32.5984915 9.40193333,42 21,42 C32.5980667,42 42,32.5984915 42,20.9999067" id="Fill-1" fill="#DBAB5A" mask="url(#mask-2)"></path>
                </g>
                <path d="M14.0182,16.4352797 C13.8954667,16.0582114 13.8366667,15.8771439 13.7774,15.6956098 C13.2192667,13.9974022 13.2468,14.0837359 14.9216667,13.6054005 C15.428,13.4607332 15.9791333,12.7257299 16.1093333,12.1671274 C16.3734667,11.0354557 16.8331333,10.6154538 17.9055333,11.1735897 C18.8692,11.6747919 19.5267333,11.3989907 20.0844,10.5160534 C20.7008667,9.5397824 21.3906,9.62891613 21.973,10.5613203 C22.4914667,11.391524 23.1364,11.6729252 24.0356667,11.2057898 C25.1738667,10.6140538 25.8034,10.9687221 25.8547333,12.2366611 C25.8972,13.2815324 26.4497333,13.6446006 27.426,13.6912675 C28.5282667,13.7444678 28.8974,14.3707372 28.3957333,15.3549416 C27.9155333,16.2962124 28.0387333,16.9766155 28.9646,17.546418 C29.8876667,18.1134205 30.0038667,18.8334904 29.0322667,19.4471598 C28.0709333,20.0547625 27.8954667,20.7234988 28.4153333,21.7436366 C28.9263333,22.7474411 28.4396,23.3261103 27.3686,23.3625105 C26.3606,23.397044 25.8925333,23.850646 25.8486667,24.8675172 C25.7978,26.0393224 25.1869333,26.4271241 24.1117333,25.8769217 C23.2362667,25.4289197 22.5596,25.5567869 22.0229333,26.4191908 C21.3229333,27.5438624 20.6159333,27.4346619 19.9565333,26.3692572 C19.4595333,25.566587 18.7945333,25.4261197 17.9811333,25.8442549 C16.8424667,26.4294575 16.2143333,26.0780559 16.1625333,24.8087169 C16.1196,23.7652456 15.5647333,23.405444 14.5884667,23.3559771 C13.4913333,23.3004436 13.1147333,22.6774408 13.6252667,21.6904364 C14.1129333,20.7468322 13.9668667,20.0626958 13.0559333,19.4924266 C12.0054667,18.8334904 12.1338,18.1843542 13.0914,17.4974178 C13.4843333,17.2155498 13.7484667,16.7530811 14.0182,16.4352797" id="Fill-4" fill="#FFFFFF"></path>
                <path d="M14.1294067,28.0732981 L9.64427333,28.0732981 C10.8394067,26.9122263 11.6822067,25.9196219 12.7126067,25.192552 C13.04674,24.9568843 14.2092067,25.2266188 14.4182733,25.5934204 C15.7132733,27.8632972 16.03014,28.0886982 18.3826067,27.7270299 C17.02414,29.0598358 15.56394,30.4920422 14.1294067,31.8990484 L14.1294067,28.0732981 Z" id="Fill-6" fill="#FFFFFF"></path>
                <path d="M27.9471267,28.0176712 L27.9471267,32.178023 C26.41926,30.5834159 25.0099267,29.1134094 23.6603267,27.7054698 C25.5125267,28.2122721 26.9825267,27.7171365 27.6409933,25.5023267 C27.7175267,25.2456589 28.9961933,24.9908577 29.3671933,25.2456589 C30.3747267,25.9372619 31.1941933,26.9032662 32.3557267,28.0176712 L27.9471267,28.0176712 Z" id="Fill-8" fill="#FFFFFF"></path>
            </g>
        </g>
    </g>
</svg>