<?xml version="1.0" encoding="UTF-8"?>
<svg width="29px" height="44px" viewBox="0 0 29 44" version="1.1" xmlns="http://www.w3.org/2000/svg" xmlns:xlink="http://www.w3.org/1999/xlink">
    <title>Untitled 09 Ground Cactus</title>
    <g id="High-Fidelity" stroke="none" stroke-width="1" fill="none" fill-rule="evenodd">
        <g id="Belajar:-Menghafal" transform="translate(-222.000000, -811.000000)">
            <g id="Untitled-09-Ground-Cactus" transform="translate(222.857143, 811.000000)">
                <path d="M2.14478642,39.7458415 C2.02357495,37.1734724 7.63253539,34.8841487 13.7097342,34.2406785 C19.786933,33.5972083 28.0076117,34.1560123 28.1413044,36.99326 C28.2749971,39.8305077 19.7456125,43.3113237 14.1649912,43.902215 C8.58436984,44.4931062 2.26599789,42.3182106 2.14478642,39.7458415 Z" id="Path-5" fill="#DBAB5B"></path>
                <path d="M11.7600037,8 C-1.09795931,8 0.1778375,24.8727814 0.1778375,24.8727814 C0.1778375,24.8727814 -0.273863532,32.7465116 6.32235078,38.2500346 C7.47401601,39.210074 12.2323933,38.9744599 12.2323933,38.9744599 C12.2323933,38.9744599 18.8389519,38.5946641 20.3871486,37.1669131 C22.8835726,34.8600051 23.6042254,27.0179245 22.8697802,23.666578 C22.8697802,23.666578 22.4215273,8 11.7600037,8 Z" id="Path" fill="#ACB545" fill-rule="nonzero"></path>
                <path d="M11.1428571,39 C11.1428571,39 2.70819801,21.2277959 10.3352256,9" id="Path" stroke="#00984A" stroke-linecap="round" stroke-linejoin="round"></path>
                <path d="M17.2558914,38 C17.2558914,38 20.2868556,11.2239601 15.1428571,8" id="Path" stroke="#00984A" stroke-linecap="round" stroke-linejoin="round"></path>
                <path d="M7.28845184,11.589373 C8.23952185,12.3016606 10.6353471,12.8964575 11.8151095,12.9882471 C13.3324654,13.1057379 16.3599173,12.316347 17.7865223,11.7802955 C18.8537535,11.3800926 20.8284943,10.0399639 21.4964214,9.11105275 C22.4329712,7.80763987 22.4402313,5.81029731 20.9301354,5.54961474 C19.8846844,5.36970704 17.467079,7.25690203 16.7810017,6.43813845 C16.0876644,5.60836011 17.9643942,3.38337924 18.1023356,2.30393308 C18.2983577,0.787568231 17.0351044,0.141369168 17.0351044,0.141369168 C17.0351044,0.141369168 15.5431587,-0.420383426 13.5139674,1.34932083 C12.7915898,1.97716196 11.1871129,4.40040845 11.1871129,4.40040845 C11.1871129,4.40040845 10.2687132,-0.938076994 8.41739372,0.145040754 C6.69675561,1.1510552 8.66786636,5.61203169 8.66786636,5.61203169 C8.66786636,5.61203169 3.90525624,4.13605429 3.19739879,6.31330454 C2.68193336,7.9031011 5.95622782,10.5907017 7.28845184,11.589373 Z" id="Path" fill="#ED7E72" fill-rule="nonzero"></path>
            </g>
        </g>
    </g>
</svg>